:SAMPLES-PER-SECOND 30
:FULLY-SPECIFIED
:DEGREES
981
root  -45.5153 39.7064 -10.6613 -2.79962 75.0388 4.41327
RightUpLeg  -15.3808 -8.28535 -9.18797
RightLeg  7.82504 4.19046 -0.0871445
RightFoot  -5.74068 -0.435459 8.09127
RightToes  5.82063e-011 0 -3.6325e-017
Spine  9.1964 -0.274805 -1.51175
Spine1  10.3971 0.131057 -2.43673
HEad  -15.2875 7.20889 -5.07581
LeftShoulder1  0.352734 2.38778 -25.387
LeftArm  1.43183 -7.82853 -52.0741
LeftForeArm  46.0694 -77.2953 -55.6897
LeftHand  -0.047362 4.81545 5.33916
RightShoulder  -0.495662 -5.04813 25.2764
RightArm  -15.2684 -0.532262 38.3942
RightForeArm  120.354 73.1324 140.134
RightHand  -0.987387 7.18278 -9.43867
LeftUpLeg  7.39231 8.25869 -1.65962
LeftLeg  14.2967 0.774031 -0.679789
LeftFoot  -15.1515 0.17577 2.55161
LeftToes  -1.20963e-009 8.6283e-011 2.04439e-011
982
root  -45.0255 39.6087 -10.4773 -0.948395 75.7191 6.35004
RightUpLeg  -15.4641 -9.33388 -9.03908
RightLeg  3.88137 5.62125 -0.281279
RightFoot  -5.58394 -0.49778 9.12216
RightToes  5.82063e-011 0 -3.6325e-017
Spine  9.19829 -0.447006 -1.52678
Spine1  10.7048 0.0398863 -2.62851
HEad  -15.2344 6.57157 -4.7784
LeftShoulder1  0.375204 2.29844 -24.8766
LeftArm  1.07507 -8.3009 -52.5398
LeftForeArm  46.1583 -77.2516 -55.1784
LeftHand  -0.053716 4.5156 4.26901
RightShoulder  -0.497394 -5.05128 25.3142
RightArm  -15.5659 0.342439 38.2293
RightForeArm  119.164 73.3589 139.362
RightHand  -0.991226 7.08558 -9.54176
LeftUpLeg  8.08513 7.96825 -2.1104
LeftLeg  14.6706 0.519678 -0.469614
LeftFoot  -15.9854 0.2008 2.57738
LeftToes  -1.20963e-009 8.6283e-011 2.04439e-011
983
root  -44.4978 39.4712 -10.2598 0.926086 76.0458 8.39267
RightUpLeg  -15.7816 -9.34265 -8.91177
RightLeg  1.93323 6.46945 -0.558136
RightFoot  -5.26528 -0.535142 9.38802
RightToes  5.82063e-011 0 -3.6325e-017
Spine  9.55185 -0.464731 -1.42668
Spine1  10.6961 0.083829 -2.77599
HEad  -15.2362 6.39567 -4.57718
LeftShoulder1  0.370133 2.30852 -24.7146
LeftArm  1.21183 -8.77461 -52.943
LeftForeArm  45.5909 -77.2147 -55.1159
LeftHand  -0.0643038 4.40983 5.24434
RightShoulder  -0.452746 -4.92174 25.0563
RightArm  -15.8521 0.419788 38.1816
RightForeArm  120.763 73.251 139.903
RightHand  -0.979392 7.22664 -9.32948
LeftUpLeg  8.88447 7.75996 -2.49863
LeftLeg  15.2424 0.410197 -0.255395
LeftFoot  -17.0926 0.2348 2.63792
LeftToes  -1.20963e-009 8.6283e-011 2.04439e-011
984
root  -43.9191 39.3009 -9.9839 3.72852 76.5686 11.3396
RightUpLeg  -16.3725 -9.23062 -9.00577
RightLeg  2.32247 7.04208 -0.670453
RightFoot  -5.05382 -0.555343 9.45627
RightToes  5.82063e-011 0 -3.6325e-017
Spine  9.72545 -0.541273 -1.86059
Spine1  10.9446 -0.120715 -2.44131
HEad  -15.3207 6.37859 -4.69558
LeftShoulder1  0.39433 2.23226 -24.7619
LeftArm  0.904135 -8.96881 -53.1339
LeftForeArm  46.2867 -77.2785 -55.3866
LeftHand  -0.0449695 4.7416 4.1944
RightShoulder  -0.441738 -4.89508 24.859
RightArm  -15.8956 0.80366 38.08
RightForeArm  120.494 73.3957 139.489
RightHand  -0.934198 6.92686 -9.11836
LeftUpLeg  9.74766 7.57368 -2.89237
LeftLeg  15.8041 0.048149 -0.179098
LeftFoot  -18.3263 0.253667 2.35209
LeftToes  -1.20963e-009 8.6283e-011 2.04439e-011
985
root  -43.2746 39.1058 -9.65049 6.59924 77.0523 14.306
RightUpLeg  -16.9638 -8.8805 -9.15212
RightLeg  4.40166 7.01868 -0.397868
RightFoot  -4.61432 -0.583521 9.38844
RightToes  5.82063e-011 0 -3.6325e-017
Spine  9.84491 -0.53723 -2.29086
Spine1  11.1527 -0.295235 -2.00982
HEad  -15.6597 6.00754 -5.02655
LeftShoulder1  0.376926 2.30711 -25.2521
LeftArm  1.27775 -9.37594 -53.2083
LeftForeArm  45.6832 -77.2194 -55.1118
LeftHand  -0.0523774 4.64076 4.95733
RightShoulder  -0.413031 -4.81644 24.5465
RightArm  -15.9868 0.906992 37.9327
RightForeArm  120.088 73.323 139.607
RightHand  -1.06688 6.98789 -10.3176
LeftUpLeg  10.6925 7.61404 -2.99577
LeftLeg  16.4796 -0.575058 -0.276741
LeftFoot  -19.7345 0.27456 2.12712
LeftToes  -1.20963e-009 8.6283e-011 2.04439e-011
986
root  -42.5691 38.903 -9.27271 9.92731 77.6955 17.6048
RightUpLeg  -17.4664 -8.15373 -9.47778
RightLeg  7.81962 6.06073 0.0492103
RightFoot  -4.24842 -0.546977 8.27566
RightToes  5.82063e-011 0 -3.6325e-017
Spine  9.76733 -0.877628 -2.37846
Spine1  11.4375 -0.640285 -2.23781
HEad  -16.1069 5.50153 -4.75482
LeftShoulder1  0.320406 2.47698 -24.9585
LeftArm  1.44319 -9.41682 -53.4938
LeftForeArm  45.3506 -77.1991 -55.0893
LeftHand  -0.0584044 4.53435 5.27734
RightShoulder  -0.353449 -4.61554 24.7485
RightArm  -16.1941 1.17807 38.0039
RightForeArm  120.264 73.5089 139.156
RightHand  -1.00068 6.95522 -9.7227
LeftUpLeg  11.6423 7.19892 -3.18214
LeftLeg  17.0052 -0.970398 -0.179506
LeftFoot  -21.0694 0.276933 1.77159
LeftToes  -1.20963e-009 8.6283e-011 2.04439e-011
987
root  -41.8136 38.7267 -8.86513 13.4547 78.538 20.8502
RightUpLeg  -17.7491 -7.50583 -9.70913
RightLeg  11.0691 4.86081 0.464708
RightFoot  -3.50859 -0.485693 7.03625
RightToes  5.82063e-011 0 -3.6325e-017
Spine  9.61722 -1.01124 -2.25659
Spine1  11.6386 -0.923802 -1.77134
HEad  -16.4777 4.82707 -4.9898
LeftShoulder1  0.362532 2.35105 -25.2149
LeftArm  1.88295 -9.28653 -53.6362
LeftForeArm  45.4795 -77.2199 -55.2332
LeftHand  -0.0738418 4.13879 5.10867
RightShoulder  -0.341045 -4.5838 24.5151
RightArm  -16.5419 0.492419 38.0018
RightForeArm  121.523 73.2307 140.079
RightHand  -0.95474 6.74159 -9.44934
LeftUpLeg  12.5938 6.63742 -3.13462
LeftLeg  17.1397 -1.52921 -0.163832
LeftFoot  -22.1925 0.263366 1.36317
LeftToes  -1.20963e-009 8.6283e-011 2.04439e-011
988
root  -41.0831 38.681 -8.44646 14.0613 79.6786 20.9823
RightUpLeg  -18.2908 -6.8285 -9.04475
RightLeg  13.1919 3.92672 0.500756
RightFoot  1.13267 -0.374156 3.30683
RightToes  5.82063e-011 0 -3.6325e-017
Spine  9.81426 -1.15676 -1.00994
Spine1  11.6806 -1.15921 -0.992833
HEad  -16.9215 4.20971 -4.94329
LeftShoulder1  0.375454 2.31468 -25.3658
LeftArm  2.695 -9.47081 -53.9376
LeftForeArm  44.8155 -77.13 -54.6834
LeftHand  -0.0399488 4.93863 4.59098
RightShoulder  -0.387054 -4.7259 24.7018
RightArm  -17.0774 -0.314062 37.4815
RightForeArm  122.353 72.7612 141.359
RightHand  -0.994884 6.95704 -9.66871
LeftUpLeg  13.7104 5.77991 -2.29274
LeftLeg  16.4785 -1.98817 -0.124146
LeftFoot  -22.583 0.230022 0.965592
LeftToes  -1.20963e-009 8.6283e-011 2.04439e-011
989
root  -40.2908 38.5132 -7.98136 13.7159 80.3453 19.8568
RightUpLeg  -19.4534 -5.85488 -8.64504
RightLeg  15.7028 3.26684 0.690774
RightFoot  6.2329 -0.536165 3.76296
RightToes  5.82063e-011 0 -3.6325e-017
Spine  9.72402 -1.32627 0.322037
Spine1  11.6243 -1.26642 -0.833753
HEad  -17.8774 3.93605 -5.30558
LeftShoulder1  0.327495 2.48003 -25.7768
LeftArm  3.08014 -9.45198 -54.0257
LeftForeArm  45.7651 -77.2647 -55.5414
LeftHand  -0.0547229 4.53479 4.75375
RightShoulder  -0.381312 -4.70542 24.7518
RightArm  -17.3023 -0.595621 37.3255
RightForeArm  123.73 72.5474 142.073
RightHand  -0.996296 6.64876 -9.89551
LeftUpLeg  13.7812 4.38191 -1.65628
LeftLeg  17.5839 -1.44898 0.0552934
LeftFoot  -23.6977 0.134144 -0.071571
LeftToes  -1.20963e-009 8.6283e-011 2.04439e-011
990
root  -39.4795 38.3678 -7.50375 9.8205 80.5416 15.3858
RightUpLeg  -20.7204 -5.49356 -7.45087
RightLeg  19.6196 3.03694 1.005
RightFoot  6.12228 -0.28892 2.14116
RightToes  5.82063e-011 0 -3.6325e-017
Spine  10.1191 -1.46591 2.55754
Spine1  11.3341 -1.0805 -1.34307
HEad  -18.795 4.22553 -5.22663
LeftShoulder1  0.383209 2.2941 -25.4505
LeftArm  2.92614 -8.89213 -54.3386
LeftForeArm  46.9358 -77.4372 -56.7457
LeftHand  -0.0785371 3.87775 4.75249
RightShoulder  -0.37558 -4.68661 24.746
RightArm  -17.5193 -0.400215 37.4814
RightForeArm  124.057 72.7099 141.751
RightHand  -0.831178 5.4371 -9.20415
LeftUpLeg  13.8648 3.35727 -0.371708
LeftLeg  19.3424 -1.25846 -0.0982653
LeftFoot  -24.5045 -0.037337 -1.59715
LeftToes  -1.20963e-009 8.6283e-011 2.04439e-011
991
root  -38.6879 38.2717 -7.00146 4.73102 80.6665 9.83594
RightUpLeg  -21.518 -5.39803 -5.90444
RightLeg  23.0603 2.9128 1.14851
RightFoot  4.56366 -0.0518914 0.587308
RightToes  5.82063e-011 0 -3.6325e-017
Spine  10.5919 -1.62134 4.73204
Spine1  11.192 -0.97141 -1.40277
HEad  -19.5117 3.89533 -5.64401
LeftShoulder1  0.397108 2.25121 -25.4785
LeftArm  2.95522 -8.99508 -54.4297
LeftForeArm  46.4089 -77.4141 -56.8116
LeftHand  -0.0659656 4.3379 5.21893
RightShoulder  -0.321197 -4.52085 24.4728
RightArm  -17.3343 -0.131441 37.7444
RightForeArm  122.911 73.0248 140.812
RightHand  -0.958158 5.99456 -10.0828
LeftUpLeg  13.5908 2.75708 1.34393
LeftLeg  21.9922 -1.89623 -0.519234
LeftFoot  -24.5626 -0.283012 -3.71402
LeftToes  -1.20963e-009 8.6283e-011 2.04439e-011
992
root  -37.9323 38.1993 -6.49275 0.620819 81.2882 5.33926
RightUpLeg  -21.7856 -6.36103 -4.55131
RightLeg  25.8695 3.09539 1.40536
RightFoot  2.31973 0.088193 -0.600435
RightToes  5.82063e-011 0 -3.6325e-017
Spine  10.9211 -1.99143 6.43425
Spine1  11.2917 -1.14092 -0.96949
HEad  -19.626 4.14883 -5.36763
LeftShoulder1  0.444483 2.10215 -25.4962
LeftArm  3.05161 -9.28751 -54.4756
LeftForeArm  44.5569 -77.1177 -54.7033
LeftHand  -0.0822752 3.92309 5.12819
RightShoulder  -0.339522 -4.56608 24.8879
RightArm  -17.0464 0.61916 37.6242
RightForeArm  121.499 73.5969 139.138
RightHand  -1.03243 7.40505 -9.67499
LeftUpLeg  12.2058 2.3591 3.31719
LeftLeg  26.5463 -3.45896 -1.55252
LeftFoot  -23.5098 -0.544464 -6.45041
LeftToes  -1.20963e-009 8.6283e-011 2.04439e-011
993
root  -37.2378 38.1501 -5.97441 -2.0549 82.0558 2.29703
RightUpLeg  -21.7939 -6.73467 -3.55728
RightLeg  28.0213 2.4466 1.17447
RightFoot  0.100163 0.118817 -1.16566
RightToes  5.82063e-011 0 -3.6325e-017
Spine  11.4565 -2.38024 7.27116
Spine1  11.0849 -1.47392 -0.0238654
HEad  -19.5072 4.2753 -5.27812
LeftShoulder1  0.506217 1.89402 -25.2209
LeftArm  2.99414 -9.35489 -54.6342
LeftForeArm  42.1855 -76.8233 -53.1508
LeftHand  -0.0900326 3.98039 6.04296
RightShoulder  -0.27809 -4.37867 24.5537
RightArm  -16.8338 0.766783 38.3546
RightForeArm  121.693 73.7879 138.66
RightHand  -0.892487 6.05147 -9.36271
LeftUpLeg  9.54761 2.11622 5.16405
LeftLeg  32.8417 -5.00404 -3.13217
LeftFoot  -20.7167 -0.676257 -9.82676
LeftToes  -1.20963e-009 8.6283e-011 2.04439e-011
